<svg id="SvgjsSvg1001" width="288" height="288" xmlns="http://www.w3.org/2000/svg" version="1.1" xmlns:xlink="http://www.w3.org/1999/xlink" xmlns:svgjs="http://svgjs.com/svgjs"><defs id="SvgjsDefs1002"></defs><g id="SvgjsG1008"><svg xmlns="http://www.w3.org/2000/svg" enable-background="new 0 0 116 116" viewBox="0 0 116 116" width="288" height="288"><switch><g fill="#ffffff" class="color000 svgShape"><path d="M12.2,83.3C7.4,75.1,5,66.2,5,56.5c0-9.7,2.4-18.6,7.2-26.8c4.8-8.2,11.2-14.6,19.4-19.4c8.2-4.8,17.1-7.2,26.8-7.2
				c9.7,0,18.6,2.4,26.8,7.2c8.2,4.8,14.6,11.2,19.4,19.4c4.8,8.2,7.2,17.1,7.2,26.8c0,9.7-2.4,18.6-7.2,26.8
				c-4.8,8.2-11.2,14.6-19.4,19.4c-8.2,4.8-17.1,7.2-26.8,7.2c-9.7,0-18.6-2.4-26.8-7.2C23.4,98,16.9,91.5,12.2,83.3z M20.7,33
				c0.3,0.3,0.6,0.5,0.8,0.6c0.2,0,0.3,0.3,0.3,0.6c0,0.4,0.1,0.6,0.2,0.8c0.1,0.1,0.3,0.1,0.8-0.2c0.4,0.4,0.5,0.8,0.2,1.3
				c0,0,1.1,0.6,3.1,1.9c0.9,0.8,1.4,1.3,1.5,1.5c0.1,0.5-0.1,0.9-0.7,1.3c0-0.1-0.3-0.3-0.6-0.6c-0.4-0.3-0.6-0.4-0.6-0.3
				c-0.1,0.2-0.1,0.7,0,1.3c0.2,0.6,0.4,0.9,0.7,0.9c-0.3,0-0.5,0.4-0.7,1.1c-0.1,0.7-0.2,1.6-0.2,2.5c0,0.9,0,1.4-0.1,1.6l0.1,0.1
				c-0.1,0.6,0,1.4,0.4,2.4c0.4,1,0.9,1.5,1.5,1.4c-0.6,0.1-0.1,1.1,1.4,3c0.3,0.4,0.5,0.6,0.6,0.6c0.1,0.1,0.4,0.3,0.8,0.5
				c0.4,0.3,0.8,0.5,1,0.7s0.5,0.5,0.7,0.7c0.2,0.2,0.4,0.8,0.7,1.6c0.3,0.8,0.6,1.4,1,1.6c-0.1,0.3,0.1,0.7,0.7,1.4
				c0.5,0.6,0.8,1.2,0.7,1.6c0,0-0.1,0-0.2,0.1c-0.1,0-0.1,0.1-0.2,0.1c0.1,0.3,0.5,0.6,1.1,1c0.6,0.3,0.9,0.6,1.1,0.9
				c0,0.1,0.1,0.4,0.1,0.7c0,0.3,0.1,0.6,0.2,0.8c0.1,0.2,0.3,0.2,0.6,0.1c0.1-0.9-0.5-2.4-1.7-4.3c-0.7-1.2-1.1-1.8-1.2-2
				c-0.1-0.2-0.3-0.6-0.4-1.1c-0.1-0.5-0.2-0.8-0.3-1c0.1,0,0.2,0,0.4,0.1c0.2,0.1,0.4,0.2,0.6,0.2c0.2,0.1,0.4,0.2,0.5,0.3
				c0.1,0.1,0.2,0.2,0.1,0.2c-0.1,0.3-0.1,0.7,0.1,1.2c0.2,0.5,0.5,0.9,0.8,1.3c0.3,0.4,0.7,0.8,1.2,1.3c0.5,0.5,0.7,0.8,0.8,0.9
				c0.3,0.3,0.6,0.7,1,1.4c0.4,0.6,0.4,0.9,0,0.9c0.4,0,0.9,0.2,1.4,0.7c0.5,0.5,0.9,0.9,1.2,1.4c0.2,0.4,0.4,1,0.6,1.8
				c0.1,0.8,0.3,1.4,0.3,1.7c0.1,0.3,0.3,0.6,0.6,0.9c0.3,0.3,0.6,0.5,0.9,0.7c0.3,0.1,0.6,0.3,1.1,0.6c0.5,0.2,0.8,0.4,0.9,0.5
				c0.2,0.1,0.7,0.3,1.3,0.7c0.6,0.4,1.1,0.7,1.5,0.8c0.5,0.2,0.8,0.3,1.1,0.3s0.6-0.1,1-0.2c0.4-0.1,0.7-0.2,0.9-0.2
				c0.7-0.1,1.4,0.3,2,1c0.6,0.8,1.1,1.3,1.5,1.5c1.7,0.9,2.9,1.1,3.8,0.8c-0.1,0-0.1,0.2,0,0.5c0.1,0.3,0.3,0.7,0.6,1.1
				c0.3,0.4,0.5,0.8,0.6,1c0.2,0.3,0.3,0.5,0.4,0.6c0.2,0.3,0.6,0.6,1.3,1c0.6,0.4,1,0.8,1.3,1c0.3-0.2,0.4-0.4,0.5-0.6
				c-0.1,0.4,0,0.8,0.5,1.4c0.5,0.6,0.9,0.8,1.3,0.7c0.6-0.1,1-0.9,1-2.2c-1.4,0.7-2.6,0.3-3.4-1.3c0,0-0.1-0.2-0.2-0.4
				c-0.1-0.2-0.2-0.4-0.3-0.6c-0.1-0.2-0.1-0.4-0.2-0.6c0-0.2,0-0.4,0-0.5c0-0.1,0.2-0.2,0.3-0.2c0.4,0,0.6-0.1,0.7-0.2
				c0-0.2,0-0.5-0.1-0.9c-0.1-0.4-0.2-0.7-0.3-0.9c0-0.4-0.3-0.8-0.8-1.4c-0.5-0.6-0.7-0.9-0.8-1c-0.2,0.4-0.6,0.6-1.1,0.6
				c-0.5,0-0.9-0.3-1.1-0.6c0,0,0,0.2-0.1,0.4s-0.1,0.4-0.1,0.5c-0.6,0-0.9,0-1-0.1c0-0.1,0.1-0.5,0.2-1.2c0.1-0.7,0.1-1.2,0.2-1.6
				c0-0.2,0.2-0.5,0.4-0.8c0.2-0.4,0.4-0.7,0.5-1c0.1-0.3,0.2-0.6,0.3-0.9c0-0.3-0.1-0.5-0.3-0.7c-0.3-0.2-0.7-0.2-1.2-0.2
				c-0.9,0-1.5,0.5-1.8,1.4c0,0.1-0.1,0.4-0.2,0.7c-0.1,0.3-0.2,0.6-0.3,0.8c-0.1,0.2-0.3,0.3-0.6,0.5C55.5,73,55,73,54.2,73
				c-0.8,0-1.3-0.2-1.7-0.3c-0.6-0.4-1.1-1-1.6-2c-0.4-1-0.7-1.8-0.7-2.6c0-0.5,0.1-1.1,0.2-1.8c0.1-0.8,0.2-1.3,0.2-1.7
				c0-0.4-0.1-1-0.4-1.7c0.1-0.1,0.3-0.3,0.6-0.7c0.3-0.3,0.5-0.6,0.7-0.7c0.1,0,0.2-0.1,0.3-0.1c0.1,0,0.2,0,0.3,0
				c0.1,0,0.2,0,0.3-0.1c0.1-0.1,0.2-0.2,0.2-0.4c0,0-0.1-0.1-0.3-0.2c-0.1-0.1-0.2-0.2-0.3-0.2c0.3,0.1,1,0.1,2-0.1
				c1-0.2,1.6-0.2,1.9,0.1c0.7,0.5,1.2,0.5,1.5-0.1c0,0-0.1-0.3-0.2-0.7c-0.1-0.4-0.1-0.7,0-0.9c0.2,1.3,0.9,1.5,2,0.6
				c0.1,0.1,0.5,0.3,1.1,0.3c0.6,0.1,1,0.2,1.2,0.3c0.1,0.1,0.3,0.2,0.5,0.4c0.2,0.2,0.3,0.3,0.4,0.3c0.1,0,0.2,0,0.3,0
				c0.2-0.1,0.4-0.2,0.6-0.5c0.5,0.6,0.7,1.2,0.8,1.7c0.5,1.9,0.9,2.9,1.3,3.1c0.3,0.1,0.6,0.2,0.8,0.1c0.2,0,0.3-0.3,0.3-0.7
				c0-0.4,0-0.7,0-1c0-0.3-0.1-0.5-0.1-0.9L66.6,62c0-0.4,0-0.8,0-1.3l-0.1-0.6c-0.7-0.1-1.1-0.4-1.3-0.8c-0.2-0.4-0.1-0.8,0.1-1.3
				c0.2-0.4,0.6-0.9,1-1.3c0,0,0.2-0.1,0.6-0.2c0.3-0.1,0.7-0.3,1.1-0.5c0.4-0.2,0.7-0.4,0.9-0.6c1-0.9,1.3-1.7,1-2.4
				c0.3,0,0.6-0.2,0.8-0.6c0,0-0.2-0.1-0.3-0.2c-0.2-0.1-0.4-0.3-0.5-0.3c-0.2-0.1-0.3-0.1-0.3-0.1c0.4-0.2,0.5-0.6,0.1-1.1
				c0.2-0.1,0.4-0.4,0.5-0.8c0.1-0.4,0.3-0.6,0.5-0.7c0.4,0.6,0.9,0.6,1.5,0.1c0.3-0.4,0.3-0.7,0.1-1.1c0.2-0.3,0.7-0.6,1.4-0.7
				c0.7-0.2,1.1-0.4,1.3-0.7c0.3,0.1,0.5,0,0.6-0.1c0-0.2,0.1-0.5,0.1-0.8c0-0.4,0.1-0.6,0.2-0.8c0.2-0.2,0.5-0.4,1-0.6
				c0.5-0.2,0.8-0.3,0.9-0.3l1.2-0.8c0.1-0.2,0.1-0.3,0-0.3c0.8,0.1,1.6-0.2,2.2-0.8c0.5-0.5,0.3-1-0.4-1.4c0.1-0.3,0.1-0.5-0.2-0.7
				c-0.3-0.2-0.6-0.3-1-0.4c0.1,0,0.4-0.1,0.8,0c0.4,0,0.6,0,0.7-0.1c0.7-0.5,0.5-0.8-0.5-1.1c-0.8-0.2-1.8,0-3,0.8
				c-0.1,0-0.3,0.3-0.7,0.7c-0.3,0.4-0.7,0.6-0.9,0.7c0.1,0,0.2-0.1,0.3-0.3c0.1-0.2,0.2-0.5,0.3-0.8c0.1-0.3,0.2-0.4,0.2-0.5
				c0.3-0.3,0.8-0.7,1.5-1c0.6-0.3,1.9-0.6,3.6-0.8c1.6-0.4,2.8-0.1,3.5,0.8c-0.1-0.1,0.1-0.4,0.7-0.9c0.5-0.5,0.9-0.8,1-0.8
				c0.1-0.1,0.5-0.2,1-0.3c0.6-0.1,0.9-0.3,1-0.5l0.1-1.5c-0.6,0-1-0.1-1.2-0.5c-0.3-0.4-0.4-0.9-0.5-1.5c0,0.1-0.1,0.3-0.4,0.6
				c0-0.3-0.1-0.5-0.3-0.6c-0.2,0-0.5,0-0.8,0.1c-0.3,0.1-0.5,0.1-0.6,0.1c-0.5-0.1-0.8-0.3-1-0.5c-0.2-0.2-0.4-0.6-0.6-1.1
				c-0.1-0.6-0.2-0.9-0.3-1c-0.1-0.2-0.3-0.5-0.7-0.7c-0.3-0.3-0.6-0.5-0.7-0.7c0-0.1-0.1-0.2-0.2-0.4c-0.1-0.2-0.1-0.3-0.2-0.5
				s-0.2-0.3-0.3-0.4c-0.1-0.1-0.2-0.2-0.4-0.2c-0.1,0-0.3,0.1-0.5,0.3c-0.2,0.2-0.4,0.5-0.5,0.7c-0.2,0.2-0.3,0.3-0.3,0.3
				c-0.1-0.1-0.3-0.1-0.4-0.1c-0.1,0-0.2,0-0.3,0.1c-0.1,0-0.2,0.1-0.3,0.2c-0.1,0.1-0.3,0.2-0.3,0.2c-0.1,0.1-0.3,0.2-0.6,0.2
				c-0.3,0-0.5,0.1-0.6,0.1c0.7-0.2,0.7-0.5-0.1-0.8c-0.5-0.2-0.8-0.3-1.1-0.2c0.4-0.2,0.6-0.5,0.5-0.8c-0.1-0.4-0.3-0.7-0.6-1h0.3
				c0-0.2-0.2-0.4-0.6-0.6c-0.3-0.2-0.8-0.4-1.2-0.6c-0.5-0.2-0.8-0.3-0.9-0.4c-0.4-0.2-1.2-0.5-2.4-0.7c-1.2-0.2-2-0.2-2.3,0
				c-0.2,0.3-0.3,0.5-0.3,0.7c0,0.2,0.1,0.5,0.3,1c0.2,0.4,0.2,0.7,0.2,0.9c0,0.3-0.1,0.6-0.4,0.9c-0.3,0.3-0.5,0.6-0.5,0.8
				c0,0.3,0.3,0.7,1,1.1c0.6,0.4,0.9,0.9,0.7,1.5c-0.1,0.4-0.5,0.7-1.1,1.1c-0.6,0.4-1,0.6-1.1,0.8c-0.2,0.4-0.3,0.8-0.1,1.3
				c0.2,0.5,0.4,0.9,0.7,1.1c0.1,0.1,0.1,0.2,0.1,0.3c0,0.1-0.1,0.2-0.2,0.3c-0.1,0.1-0.3,0.2-0.4,0.3c-0.1,0.1-0.3,0.2-0.5,0.2
				l-0.2,0.1c-0.5,0.2-1,0.1-1.4-0.4c-0.4-0.5-0.8-1.1-0.9-1.8c-0.3-1.2-0.7-1.9-1.1-2.1c-1.1-0.4-1.7-0.3-2,0.1
				c-0.2-0.6-1.2-1.2-2.8-1.8c-1.2-0.4-2.5-0.5-4-0.3c0.3,0,0.3-0.4,0-1c-0.3-0.7-0.8-1-1.3-0.8c0.1-0.3,0.2-0.7,0.3-1.2
				c0-0.5,0.1-0.8,0.1-0.9c0.1-0.6,0.4-1.1,0.8-1.6c0,0,0.2-0.2,0.5-0.6c0.3-0.3,0.5-0.7,0.7-0.9c0.2-0.3,0.2-0.4,0-0.4
				c1.6,0.2,2.8-0.1,3.5-0.8c0.2-0.2,0.5-0.6,0.8-1.2c0.3-0.6,0.5-0.9,0.7-1.2c0.4-0.3,0.7-0.4,1-0.4c0.2,0,0.6,0.2,1,0.4
				c0.4,0.2,0.8,0.3,1,0.3c0.6,0,1-0.2,1.1-0.8c0.1-0.6-0.1-1-0.5-1.4c0.6,0,0.6-0.3,0.2-1.2c-0.2-0.3-0.4-0.5-0.6-0.6
				c-0.6-0.2-1.2-0.1-1.9,0.3c-0.4,0.2-0.3,0.4,0.1,0.6c0,0-0.3,0.2-0.7,0.7c-0.4,0.5-0.8,0.9-1.1,1.2c-0.4,0.3-0.7,0.2-1.1-0.3
				c0,0-0.2-0.4-0.4-0.9c-0.2-0.6-0.4-0.9-0.7-0.9c-0.4,0-0.7,0.3-1.1,1c0.1-0.4-0.1-0.7-0.8-1c-0.6-0.3-1.2-0.5-1.7-0.6
				c0.9-0.6,0.7-1.2-0.6-1.9c-0.3-0.2-0.8-0.3-1.4-0.3c-0.6,0-1.1,0-1.4,0.3c-0.2,0.3-0.4,0.6-0.4,0.8c0,0.2,0.1,0.4,0.3,0.6
				c0.3,0.2,0.5,0.3,0.7,0.4c0.2,0.1,0.5,0.2,0.8,0.3c0.3,0.1,0.5,0.2,0.6,0.2c0.6,0.5,0.8,0.8,0.6,1c-0.1,0-0.3,0.1-0.6,0.2
				c-0.3,0.1-0.6,0.2-0.8,0.3c-0.2,0.1-0.4,0.2-0.4,0.3c-0.1,0.2-0.1,0.5,0,1c0.1,0.5,0.1,0.8-0.1,1c-0.2-0.2-0.4-0.6-0.6-1.2
				c-0.2-0.6-0.3-1-0.5-1.1c0.3,0.4-0.3,0.6-1.7,0.4l-0.7-0.1c-0.2,0-0.6,0-1.1,0.1c-0.6,0.1-1,0.1-1.4,0.1c-0.4,0-0.7-0.2-0.9-0.6
				c-0.2-0.4-0.2-0.8,0-1.4c0-0.2,0.1-0.2,0.3-0.1c-0.2-0.1-0.4-0.4-0.8-0.7c-0.3-0.3-0.6-0.5-0.7-0.6c-2.1,0.7-4.3,1.6-6.5,2.8
				c0.3,0,0.6,0,0.8-0.1c0.2-0.1,0.5-0.2,0.9-0.5c0.4-0.2,0.6-0.3,0.7-0.4c1.6-0.6,2.5-0.8,2.9-0.5l0.3-0.3c0.6,0.7,1.1,1.3,1.4,1.7
				c-0.3-0.2-1-0.2-2.1-0.1c-0.9,0.3-1.4,0.6-1.5,0.8c0.3,0.6,0.4,1,0.3,1.3c-0.2-0.1-0.5-0.4-0.8-0.7c-0.3-0.3-0.7-0.6-1-0.8
				c-0.3-0.2-0.7-0.3-1-0.3c-0.7,0-1.3,0-1.5,0.1C30.3,21.3,24.8,26.4,20.7,33z M65.9,99.2c0,0.3,0,0.6,0.1,1.1
				c9.5-1.7,17.7-6,24.4-13.1c-0.1-0.1-0.4-0.2-0.9-0.3c-0.4-0.1-0.7-0.1-0.9-0.2c-0.8-0.3-1.4-0.5-1.7-0.6c0-0.3,0-0.6-0.2-0.9
				c-0.2-0.3-0.3-0.5-0.6-0.6c-0.2-0.1-0.5-0.3-0.9-0.6c-0.4-0.2-0.6-0.4-0.8-0.5c-0.1-0.1-0.3-0.2-0.5-0.4
				c-0.2-0.2-0.4-0.3-0.5-0.4c-0.1-0.1-0.3-0.2-0.5-0.3c-0.3-0.1-0.5-0.2-0.6-0.1c-0.1,0-0.4,0.1-0.7,0.1l-0.2,0.1
				c-0.1,0-0.3,0.1-0.4,0.2c-0.1,0.1-0.2,0.1-0.4,0.2c-0.1,0.1-0.2,0.1-0.3,0.2c0,0.1,0,0.1,0,0.2c-1-0.8-1.8-1.3-2.5-1.5
				c-0.2,0-0.5-0.2-0.8-0.4s-0.5-0.4-0.7-0.5c-0.2-0.1-0.4-0.1-0.7-0.1c-0.3,0-0.5,0.2-0.8,0.5c-0.2,0.2-0.4,0.6-0.4,1
				c0,0.5-0.1,0.8-0.1,0.9c-0.3-0.2-0.3-0.6,0-1.2c0.3-0.6,0.4-1,0.1-1.3c-0.1-0.3-0.4-0.4-0.7-0.3c-0.3,0.1-0.6,0.2-0.8,0.3
				c-0.2,0.1-0.5,0.3-0.8,0.6c-0.3,0.3-0.5,0.4-0.6,0.5c-0.1,0-0.3,0.2-0.6,0.4c-0.3,0.2-0.5,0.4-0.6,0.5c-0.1,0.2-0.3,0.5-0.4,0.8
				c-0.1,0.4-0.3,0.6-0.3,0.8c-0.1-0.2-0.4-0.3-0.8-0.5c-0.4-0.1-0.7-0.2-0.7-0.4c0.1,0.5,0.2,1.3,0.3,2.4c0.1,1.2,0.2,2,0.3,2.6
				c0.3,1.4,0,2.5-0.8,3.3c-1.3,1.2-1.9,2.1-2,2.8c-0.2,1,0.1,1.6,0.8,1.8c0,0.3-0.2,0.8-0.6,1.4C66,98.3,65.9,98.8,65.9,99.2z" fill="#ffffff" class="color000 svgShape"></path></g></switch></svg></g></svg>